<svg width="1239" height="294" viewBox="0 0 1239 294" fill="none" xmlns="http://www.w3.org/2000/svg">
<path d="M143.259 55.0328C129.539 46.5395 125.839 36.8605 107.659 39.4577C56.114 46.8212 17.5596 99.2405 8.74668 148.079C1.65342 187.387 32.6017 215.141 70.2379 210.379C124.659 203.493 175.652 172.813 204.548 126.031C217.331 105.335 236.719 55.7537 199.288 46.0316C168.564 38.0511 119.305 33.8581 92.6903 55.4373C68.2503 75.2535 54.9889 111.71 75.9015 137.763C86.5841 151.071 101.151 155 117.57 156.574C153.533 160.023 191.327 156.168 226.595 148.787C260.65 141.659 296.004 131.379 328.339 118.446C341.002 113.381 356.38 108.344 366.771 99.1284C368.994 97.1571 371.397 93.8551 366.973 93.3636C329.437 89.193 304.366 122.545 290.716 152.326C276.977 182.302 262.836 211.559 239.136 235.259C231.623 242.772 203.466 263.532 206.368 240.315C209.612 214.367 226.069 193.359 242.676 174.273C275.368 136.702 321.732 112.316 368.996 98.5216C385.283 93.7684 415.607 85.4641 424.621 106.41C431.854 123.215 406.978 139.078 395.494 146.46C369.838 162.954 340.315 170.149 310.741 176.195C296.691 179.067 275.025 188.593 303.055 187.825C338.762 186.847 375.435 177.135 410.159 169.419C449.758 160.619 491.763 151.883 528.388 133.717C533.32 131.271 560.872 119.941 554.279 110.051C550.86 104.923 533.434 108.342 528.691 108.838C510.362 110.753 491.299 115.753 474.28 122.693C462.461 127.512 425.806 150.549 447.478 166.688C459.855 175.905 480.138 172.973 494.001 169.924C518.779 164.475 542.105 152.955 564.494 141.404C581.771 132.49 599.304 123.306 615.365 112.276C619.594 109.372 623.197 105.803 616.478 103.477C603.585 99.0142 593.1 107.108 585.631 116.929C576.766 128.584 573.36 141.416 571.472 155.765C571.125 158.4 568.583 163.791 571.674 160.013C581.037 148.57 591.567 136.883 603.532 128.155C616.27 118.864 633.239 111.671 649.347 114.501C663.539 116.994 672.179 127.356 682.723 135.942C702.406 151.97 727.402 150.837 751.293 147.27C812.551 138.122 871.934 120.335 931.519 104.185" stroke="white" stroke-width="7" stroke-linecap="round"/>
<path d="M873.264 7.70068C862.502 40.5868 852.695 71.5417 835.54 102.162C813.257 141.938 782.65 176.263 746.439 203.906C698.273 240.676 639.176 268.444 580.069 281.579C563.909 285.17 527.558 293.483 515.442 275.309C507.141 262.856 521.681 246.7 532.838 242.54C555.4 234.127 583.893 229.155 607.881 231.82C643.349 235.761 675.71 252.799 711.446 257.003C755.265 262.158 798.029 259.358 841.912 255.284C878.645 251.874 913.755 245.822 949.522 237.079C963.699 233.614 991.326 230.253 1000.29 216.649C1006.57 207.126 991.212 206.235 984.818 205.322C962.304 202.106 936.697 203.5 914.326 206.536C889.846 209.857 866.222 224.487 851.621 244.563C838.016 263.271 851.887 269.954 869.826 271.263C914.58 274.53 956.179 260.918 997.056 243.754C1013.64 236.792 1028.7 230.536 1042.57 218.976C1049.76 212.983 1059.08 208.263 1064.41 200.265C1070.07 191.773 1056.08 193.164 1051.67 195.613C1038.73 202.801 1033.52 220.652 1028.41 233.034C1025.76 239.451 1023.54 246.003 1020.72 252.351C1019.52 255.064 1024.63 244.873 1026.18 242.54C1034.98 229.343 1040.73 218.698 1055.51 210.885C1072.41 201.953 1092.43 199.671 1100.01 221.099C1108.12 244 1114.35 256.096 1142.19 251.036C1174.31 245.196 1209.37 225.139 1226.64 196.827C1229.66 191.863 1234.73 176.256 1225.63 187.016C1221.99 191.309 1219.06 196.144 1219.15 201.883C1219.26 208.826 1220.75 215.624 1223.2 222.111C1225.88 229.231 1234.42 239.214 1230.68 247.193C1225.19 258.922 1206.72 263.577 1195.79 266.712C1169.43 274.271 1142.53 275.155 1115.39 277.129" stroke="white" stroke-width="7" stroke-linecap="round"/>
</svg>
